<?xml version="1.0" encoding="utf-8"?>
<!-- Generator: Adobe Illustrator 28.2.0, SVG Export Plug-In . SVG Version: 6.00 Build 0)  -->
<svg version="1.1" xmlns="http://www.w3.org/2000/svg" xmlns:xlink="http://www.w3.org/1999/xlink" x="0px" y="0px"
	 viewBox="0 0 478 314" style="enable-background:new 0 0 478 314;" xml:space="preserve">
<style type="text/css">
	.st0{fill:#FDFDFD;}
	.st1{fill:#268BF9;}
	.st2{fill:#FB4280;}
	.st3{fill:#FAC64E;}
</style>
<g id="Layer_0_xA0_Image_00000043455866949995492370000012220975060965918383_">
</g>
<g id="Layer_3_xA0_Image_00000141414017591367364130000016947191766456040592_">
	<g>
		<g>
			<path class="st0" d="M330,159.54c0,15.76,0,31.51,0,47.29c-63.78,0-127.57,0-191.45,0c0-57.56,0-115.14,0-172.88
				c63.75,0,127.6,0,191.45,0c0,41.05,0,82.17,0,123.29c-8.6-15.18-17.2-30.37-26.42-46.65c-1.92,2.98-2.99,4.5-3.91,6.11
				c-6.04,10.48-12.34,20.82-17.97,31.52c-3.44,6.55-7.8,9.57-15.48,9.18c-12.08-0.61-24.22-0.22-36.33-0.2
				c-1.98,0-3.95,0.26-6.2,0.41c0.28,1.52,0.23,2.35,0.58,2.96c7.62,13.33,15.13,26.73,23.1,39.85c1.07,1.76,4.44,2.94,6.77,2.98
				c14.61,0.27,29.22,0.02,43.83,0.21c4,0.05,6.33-1.43,8.24-4.86c4.66-8.39,9.56-16.65,14.52-24.87
				C323.67,169,326.9,164.31,330,159.54z M219.73,112.67c-1.46-0.73-1.96-1.19-2.46-1.19c-15.37-0.07-30.75-0.32-46.11,0.09
				c-2.42,0.06-5.61,2.61-6.99,4.89c-7.27,11.97-13.95,24.29-21.1,36.33c-2.32,3.91-2.47,7.21-0.13,11.16
				c7.16,12.04,14.11,24.2,21.04,36.37c1.8,3.16,4.13,4.63,7.88,4.54c8.64-0.2,17.29-0.06,25.94-0.06c7,0,13.99,0,21.93,0
				c-1.64-3.34-2.61-5.59-3.82-7.71c-5.9-10.33-11.6-20.79-17.91-30.86c-3.55-5.67-3.32-10.39,0.15-15.93
				c5.81-9.26,11.08-18.86,16.53-28.34C216.38,119.02,217.93,115.99,219.73,112.67z M260.5,126.97c1.34-1.14,2.25-1.58,2.67-2.31
				c7.51-12.96,15.18-25.84,22.22-39.05c1.23-2.31,0.65-6.6-0.7-9.11c-6.62-12.35-13.84-24.38-20.7-36.61
				c-2.01-3.59-4.65-5.09-8.83-5.03c-14.22,0.19-28.46,0.19-42.68,0c-3.98-0.05-6.48,1.42-8.39,4.76
				c-7.05,12.34-14.23,24.61-21.3,36.93c-0.71,1.23-1.04,2.69-1.82,4.77c3.04,0,5.32,0,7.61,0c12.11,0,24.23,0.08,36.34-0.03
				c6.33-0.06,11.1,1.96,13.92,8.07c1.93,4.17,4.49,8.05,6.8,12.04C250.49,109.78,255.38,118.17,260.5,126.97z"/>
			<path class="st1" d="M330,159.54c-3.1,4.77-6.33,9.46-9.27,14.33c-4.96,8.22-9.86,16.48-14.52,24.87
				c-1.9,3.43-4.24,4.91-8.24,4.86c-14.61-0.19-29.22,0.06-43.83-0.21c-2.33-0.04-5.7-1.22-6.77-2.98
				c-7.97-13.12-15.48-26.52-23.1-39.85c-0.35-0.61-0.3-1.44-0.58-2.96c2.25-0.16,4.22-0.41,6.2-0.41
				c12.11-0.02,24.25-0.41,36.33,0.2c7.68,0.39,12.04-2.64,15.48-9.18c5.62-10.7,11.92-21.04,17.97-31.52
				c0.92-1.6,1.99-3.12,3.91-6.11c9.22,16.28,17.82,31.47,26.42,46.65C330,158,330,158.77,330,159.54z"/>
			<path class="st2" d="M219.73,112.67c-1.8,3.32-3.35,6.34-5.05,9.29c-5.45,9.48-10.72,19.08-16.53,28.34
				c-3.48,5.54-3.71,10.26-0.15,15.93c6.31,10.07,12.01,20.53,17.91,30.86c1.21,2.12,2.18,4.37,3.82,7.71c-7.94,0-14.94,0-21.93,0
				c-8.65,0-17.3-0.14-25.94,0.06c-3.75,0.09-6.08-1.38-7.88-4.54c-6.93-12.17-13.88-24.34-21.04-36.37
				c-2.35-3.95-2.2-7.25,0.13-11.16c7.15-12.04,13.83-24.36,21.1-36.33c1.38-2.28,4.57-4.82,6.99-4.89
				c15.36-0.41,30.74-0.16,46.11-0.09C217.77,111.49,218.27,111.95,219.73,112.67z"/>
			<path class="st3" d="M260.5,126.97c-5.12-8.8-10-17.19-14.87-25.59c-2.31-3.99-4.87-7.87-6.8-12.04
				c-2.82-6.11-7.59-8.13-13.92-8.07c-12.11,0.12-24.22,0.03-36.34,0.03c-2.29,0-4.57,0-7.61,0c0.78-2.09,1.11-3.54,1.82-4.77
				c7.07-12.33,14.25-24.59,21.3-36.93c1.91-3.34,4.42-4.81,8.39-4.76c14.22,0.19,28.46,0.19,42.68,0c4.18-0.06,6.81,1.44,8.83,5.03
				c6.86,12.23,14.08,24.25,20.7,36.61c1.35,2.51,1.93,6.8,0.7,9.11c-7.03,13.22-14.71,26.09-22.22,39.05
				C262.75,125.38,261.84,125.83,260.5,126.97z"/>
		</g>
	</g>
	<g>
		<path d="M109.48,263.12c0.23,0.66,0.35,1.24,0.35,1.73s-0.07,0.83-0.22,1.03s-0.34,0.34-0.57,0.44s-0.51,0.18-0.82,0.23
			c-0.31,0.06-0.69,0.21-1.14,0.47c-0.86,0.49-1.29,1.78-1.29,3.87v6.83c-0.25,0.53-0.79,1.21-1.61,2.05s-1.93,1.65-3.34,2.43
			c-3.44,1.91-7.21,2.87-11.32,2.87c-4.11,0-7.51-0.54-10.21-1.61c-2.7-1.07-4.95-2.57-6.77-4.48c-3.65-3.85-5.48-8.97-5.48-15.38
			c0-3.95,0.63-7.45,1.89-10.52s2.96-5.63,5.11-7.71c4.39-4.26,9.9-6.39,16.52-6.39c5.29,0,9.25,0.96,11.87,2.87
			c2.07,1.52,3.11,3.45,3.11,5.77c0,1.45-0.42,2.61-1.26,3.49c-0.8,0.84-1.85,1.26-3.13,1.26c-1.13,0-1.93-0.15-2.4-0.44
			c0.1-0.62,0.15-1.4,0.15-2.31s-0.2-1.81-0.6-2.68c-0.4-0.87-0.99-1.56-1.77-2.07c-1.35-0.9-3.38-1.35-6.09-1.35
			c-2.71,0-5.03,0.35-6.96,1.05c-1.92,0.7-3.55,1.79-4.88,3.25c-2.75,3.01-4.13,7.44-4.13,13.3c0,12.87,5.49,19.31,16.46,19.31
			c2.6,0,4.83-0.4,6.71-1.2c0.6-0.25,1.07-0.54,1.41-0.85L99.02,270c0-1.41-0.92-2.37-2.75-2.9c-0.45-0.12-0.91-0.22-1.38-0.32
			s-0.93-0.2-1.39-0.31c-0.46-0.11-0.85-0.25-1.16-0.42c-0.63-0.31-0.94-0.83-0.94-1.57s0.15-1.26,0.44-1.6
			c0.45,0.16,1.42,0.23,2.9,0.23H109.48z"/>
		<path d="M114.6,268.27c0-2.38,0.23-4.52,0.7-6.42s1.11-3.56,1.93-5.01s1.79-2.68,2.9-3.71s2.3-1.86,3.57-2.5
			c2.48-1.27,5.2-1.9,8.17-1.9c3.81,0,7.04,1.39,9.7,4.16c2.95,3.05,4.42,7.07,4.42,12.07c0,6.56-1.79,11.67-5.36,15.32
			c-3.11,3.14-6.83,4.72-11.16,4.72c-4.53,0-8.16-1.59-10.9-4.78C115.93,277.16,114.6,273.17,114.6,268.27z M131.21,280.22
			c1.31,0,2.48-0.31,3.52-0.92c1.04-0.62,1.91-1.46,2.64-2.53c1.45-2.23,2.17-5.12,2.17-8.67c0-3.91-0.76-7.23-2.29-9.96
			c-1.72-3.14-4.19-4.72-7.41-4.72c-2.6,0-4.68,1-6.24,2.99c-1.66,2.11-2.49,5.06-2.49,8.85c0,4.75,1.04,8.5,3.13,11.25
			C126.12,278.98,128.44,280.22,131.21,280.22z"/>
		<path d="M167.19,284.59c-0.39-0.1-1.02-0.15-1.88-0.15h-8.79c-1.88,0-3.08-0.33-3.6-1c-0.22-0.25-0.32-0.55-0.32-0.88
			c0-0.82,0.16-1.43,0.47-1.82c0.47,0.16,1.01,0.23,1.61,0.23c0.6,0,1.05-0.24,1.35-0.73s0.43-1.4,0.41-2.72v-36.3
			c0-1.35-0.14-2.22-0.41-2.61c-0.41-0.62-1.13-0.94-2.17-0.94c-0.31,0-0.63,0.03-0.95,0.1s-0.57,0.06-0.73-0.03
			c-0.17-0.09-0.3-0.21-0.4-0.37c-0.25-0.39-0.23-0.79,0.07-1.19c0.3-0.4,0.74-0.83,1.3-1.27c0.57-0.45,1.19-0.84,1.88-1.17
			c1.46-0.76,2.73-1.14,3.79-1.14c1.06,0,1.86,0.16,2.37,0.47c0.52,0.31,0.9,0.73,1.16,1.26c0.43,0.86,0.64,2.25,0.64,4.16v39.32
			c0,1.62,0.49,2.62,1.46,2.99c0.27,0.12,0.6,0.21,0.98,0.29s0.73,0.17,1.04,0.28c0.31,0.11,0.56,0.23,0.73,0.37
			c0.29,0.25,0.44,0.66,0.44,1.23C167.66,283.66,167.5,284.2,167.19,284.59z M179.58,248.73c3.05,0,4.57,0.94,4.57,2.81
			c0,2.36-2.37,5.62-7.12,9.79c-1.84,1.62-3.68,3.01-5.54,4.16c1.25,1.15,2.53,2.65,3.84,4.48l3.08,4.34
			c2.58,3.69,4.52,5.54,5.83,5.54c1.07,0,1.78-0.11,2.12-0.32s0.59-0.33,0.75-0.35s0.36,0.05,0.62,0.21s0.38,0.42,0.38,0.79
			s-0.15,0.83-0.45,1.39s-0.73,1.09-1.27,1.6c-1.33,1.23-2.76,1.85-4.31,1.85s-2.84-0.37-3.9-1.1s-2.04-1.68-2.96-2.84
			s-1.79-2.46-2.61-3.88l-2.43-4.16c-1.97-3.4-3.66-5.61-5.07-6.62c-0.82-0.57-1.09-0.93-0.82-1.08l0.85-0.47l4.72-3.37
			c2.01-1.5,3.4-2.69,4.16-3.54c1.48-1.66,2.23-3.05,2.23-4.16c0-0.78-0.78-1.23-2.34-1.35c-0.2-0.31-0.29-0.64-0.29-1
			s0.19-0.7,0.57-1.04s0.86-0.63,1.45-0.86C176.88,248.99,178.2,248.73,179.58,248.73z"/>
		<path d="M233.67,263.12c0.23,0.66,0.35,1.24,0.35,1.73s-0.07,0.83-0.22,1.03s-0.34,0.34-0.57,0.44s-0.51,0.18-0.82,0.23
			s-0.69,0.21-1.14,0.47c-0.86,0.49-1.29,1.78-1.29,3.87v6.83c-0.25,0.53-0.79,1.21-1.61,2.05s-1.93,1.65-3.34,2.43
			c-3.44,1.91-7.21,2.87-11.32,2.87s-7.51-0.54-10.21-1.61c-2.7-1.07-4.95-2.57-6.77-4.48c-3.65-3.85-5.48-8.97-5.48-15.38
			c0-3.95,0.63-7.45,1.89-10.52s2.96-5.63,5.11-7.71c4.39-4.26,9.9-6.39,16.52-6.39c5.29,0,9.25,0.96,11.87,2.87
			c2.07,1.52,3.11,3.45,3.11,5.77c0,1.45-0.42,2.61-1.26,3.49c-0.8,0.84-1.85,1.26-3.13,1.26c-1.13,0-1.93-0.15-2.4-0.44
			c0.1-0.62,0.15-1.4,0.15-2.31s-0.2-1.81-0.6-2.68s-0.99-1.56-1.77-2.07c-1.35-0.9-3.38-1.35-6.09-1.35s-5.03,0.35-6.96,1.05
			s-3.55,1.79-4.88,3.25c-2.75,3.01-4.13,7.44-4.13,13.3c0,12.87,5.49,19.31,16.46,19.31c2.6,0,4.83-0.4,6.71-1.2
			c0.61-0.25,1.07-0.54,1.41-0.85l-0.03-8.38c0-1.41-0.92-2.37-2.75-2.9c-0.45-0.12-0.91-0.22-1.38-0.32s-0.93-0.2-1.39-0.31
			s-0.84-0.25-1.16-0.42c-0.62-0.31-0.94-0.83-0.94-1.57s0.15-1.26,0.44-1.6c0.45,0.16,1.42,0.23,2.9,0.23H233.67z"/>
		<path d="M238.79,268.27c0-2.38,0.23-4.52,0.7-6.42s1.11-3.56,1.93-5.01s1.79-2.68,2.9-3.71s2.3-1.86,3.57-2.5
			c2.48-1.27,5.21-1.9,8.17-1.9c3.81,0,7.04,1.39,9.7,4.16c2.95,3.05,4.42,7.07,4.42,12.07c0,6.56-1.79,11.67-5.36,15.32
			c-3.11,3.14-6.83,4.72-11.16,4.72c-4.53,0-8.16-1.59-10.9-4.78C240.12,277.16,238.79,273.17,238.79,268.27z M255.4,280.22
			c1.31,0,2.48-0.31,3.52-0.92s1.91-1.46,2.64-2.53c1.45-2.23,2.17-5.12,2.17-8.67c0-3.91-0.76-7.23-2.29-9.96
			c-1.72-3.14-4.19-4.72-7.41-4.72c-2.6,0-4.68,1-6.24,2.99c-1.66,2.11-2.49,5.06-2.49,8.85c0,4.75,1.04,8.5,3.13,11.25
			C250.31,278.98,252.63,280.22,255.4,280.22z"/>
		<path d="M291.38,284.59c-0.39-0.1-1.02-0.15-1.88-0.15h-8.79c-1.88,0-3.08-0.33-3.6-1c-0.21-0.25-0.32-0.55-0.32-0.88
			c0-0.82,0.16-1.43,0.47-1.82c0.47,0.16,1.01,0.23,1.61,0.23s1.05-0.24,1.35-0.73s0.43-1.4,0.41-2.72v-36.3
			c0-1.35-0.14-2.22-0.41-2.61c-0.41-0.62-1.13-0.94-2.17-0.94c-0.31,0-0.63,0.03-0.95,0.1s-0.57,0.06-0.73-0.03s-0.3-0.21-0.4-0.37
			c-0.25-0.39-0.23-0.79,0.07-1.19s0.74-0.83,1.3-1.27s1.19-0.84,1.88-1.17c1.46-0.76,2.73-1.14,3.79-1.14s1.86,0.16,2.37,0.47
			s0.9,0.73,1.16,1.26c0.43,0.86,0.64,2.25,0.64,4.16v39.32c0,1.62,0.49,2.62,1.46,2.99c0.27,0.12,0.6,0.21,0.98,0.29
			s0.73,0.17,1.04,0.28s0.56,0.23,0.73,0.37c0.29,0.25,0.44,0.66,0.44,1.23C291.85,283.66,291.69,284.2,291.38,284.59z
			 M303.77,248.73c3.05,0,4.57,0.94,4.57,2.81c0,2.36-2.37,5.62-7.12,9.79c-1.84,1.62-3.68,3.01-5.54,4.16
			c1.25,1.15,2.53,2.65,3.84,4.48l3.08,4.34c2.58,3.69,4.52,5.54,5.83,5.54c1.07,0,1.78-0.11,2.12-0.32s0.59-0.33,0.75-0.35
			s0.36,0.05,0.62,0.21s0.38,0.42,0.38,0.79s-0.15,0.83-0.45,1.39s-0.73,1.09-1.27,1.6c-1.33,1.23-2.76,1.85-4.31,1.85
			s-2.84-0.37-3.9-1.1s-2.04-1.68-2.96-2.84s-1.79-2.46-2.61-3.88l-2.43-4.16c-1.97-3.4-3.66-5.61-5.07-6.62
			c-0.82-0.57-1.09-0.93-0.82-1.08l0.85-0.47l4.72-3.37c2.01-1.5,3.4-2.69,4.16-3.54c1.48-1.66,2.23-3.05,2.23-4.16
			c0-0.78-0.78-1.23-2.34-1.35c-0.2-0.31-0.29-0.64-0.29-1s0.19-0.7,0.57-1.04s0.86-0.63,1.45-0.86
			C301.07,248.99,302.39,248.73,303.77,248.73z"/>
		<path d="M357.86,263.12c0.23,0.66,0.35,1.24,0.35,1.73s-0.07,0.83-0.22,1.03s-0.34,0.34-0.57,0.44s-0.51,0.18-0.82,0.23
			s-0.69,0.21-1.14,0.47c-0.86,0.49-1.29,1.78-1.29,3.87v6.83c-0.25,0.53-0.79,1.21-1.61,2.05s-1.93,1.65-3.34,2.43
			c-3.44,1.91-7.21,2.87-11.32,2.87s-7.51-0.54-10.21-1.61c-2.7-1.07-4.95-2.57-6.77-4.48c-3.65-3.85-5.48-8.97-5.48-15.38
			c0-3.95,0.63-7.45,1.89-10.52s2.96-5.63,5.11-7.71c4.39-4.26,9.9-6.39,16.52-6.39c5.29,0,9.25,0.96,11.87,2.87
			c2.07,1.52,3.11,3.45,3.11,5.77c0,1.45-0.42,2.61-1.26,3.49c-0.8,0.84-1.85,1.26-3.13,1.26c-1.13,0-1.93-0.15-2.4-0.44
			c0.1-0.62,0.15-1.4,0.15-2.31s-0.2-1.81-0.6-2.68s-0.99-1.56-1.77-2.07c-1.35-0.9-3.38-1.35-6.09-1.35s-5.03,0.35-6.96,1.05
			s-3.55,1.79-4.88,3.25c-2.75,3.01-4.13,7.44-4.13,13.3c0,12.87,5.49,19.31,16.46,19.31c2.6,0,4.83-0.4,6.71-1.2
			c0.61-0.25,1.07-0.54,1.41-0.85L347.4,270c0-1.41-0.92-2.37-2.75-2.9c-0.45-0.12-0.91-0.22-1.38-0.32s-0.93-0.2-1.39-0.31
			s-0.84-0.25-1.16-0.42c-0.62-0.31-0.94-0.83-0.94-1.57s0.15-1.26,0.44-1.6c0.45,0.16,1.42,0.23,2.9,0.23H357.86z"/>
		<path d="M362.98,268.27c0-2.38,0.23-4.52,0.7-6.42s1.11-3.56,1.93-5.01s1.79-2.68,2.9-3.71s2.3-1.86,3.57-2.5
			c2.48-1.27,5.21-1.9,8.17-1.9c3.81,0,7.04,1.39,9.7,4.16c2.95,3.05,4.42,7.07,4.42,12.07c0,6.56-1.79,11.67-5.36,15.32
			c-3.11,3.14-6.83,4.72-11.16,4.72c-4.53,0-8.16-1.59-10.9-4.78C364.31,277.16,362.98,273.17,362.98,268.27z M379.59,280.22
			c1.31,0,2.48-0.31,3.52-0.92s1.91-1.46,2.64-2.53c1.45-2.23,2.17-5.12,2.17-8.67c0-3.91-0.76-7.23-2.29-9.96
			c-1.72-3.14-4.19-4.72-7.41-4.72c-2.6,0-4.68,1-6.24,2.99c-1.66,2.11-2.49,5.06-2.49,8.85c0,4.75,1.04,8.5,3.13,11.25
			C374.5,278.98,376.82,280.22,379.59,280.22z"/>
		<path d="M415.57,284.59c-0.39-0.1-1.02-0.15-1.88-0.15h-8.79c-1.88,0-3.08-0.33-3.6-1c-0.21-0.25-0.32-0.55-0.32-0.88
			c0-0.82,0.16-1.43,0.47-1.82c0.47,0.16,1.01,0.23,1.61,0.23s1.05-0.24,1.35-0.73s0.43-1.4,0.41-2.72v-36.3
			c0-1.35-0.14-2.22-0.41-2.61c-0.41-0.62-1.13-0.94-2.17-0.94c-0.31,0-0.63,0.03-0.95,0.1s-0.57,0.06-0.73-0.03s-0.3-0.21-0.4-0.37
			c-0.25-0.39-0.23-0.79,0.07-1.19s0.74-0.83,1.3-1.27s1.19-0.84,1.88-1.17c1.46-0.76,2.73-1.14,3.79-1.14s1.86,0.16,2.37,0.47
			s0.9,0.73,1.16,1.26c0.43,0.86,0.64,2.25,0.64,4.16v39.32c0,1.62,0.49,2.62,1.46,2.99c0.27,0.12,0.6,0.21,0.98,0.29
			s0.73,0.17,1.04,0.28s0.56,0.23,0.73,0.37c0.29,0.25,0.44,0.66,0.44,1.23C416.04,283.66,415.88,284.2,415.57,284.59z
			 M427.96,248.73c3.05,0,4.57,0.94,4.57,2.81c0,2.36-2.37,5.62-7.12,9.79c-1.84,1.62-3.68,3.01-5.54,4.16
			c1.25,1.15,2.53,2.65,3.84,4.48l3.08,4.34c2.58,3.69,4.52,5.54,5.83,5.54c1.07,0,1.78-0.11,2.12-0.32s0.59-0.33,0.75-0.35
			s0.36,0.05,0.62,0.21s0.38,0.42,0.38,0.79s-0.15,0.83-0.45,1.39s-0.73,1.09-1.27,1.6c-1.33,1.23-2.76,1.85-4.31,1.85
			s-2.84-0.37-3.9-1.1s-2.04-1.68-2.96-2.84s-1.79-2.46-2.61-3.88l-2.43-4.16c-1.97-3.4-3.66-5.61-5.07-6.62
			c-0.82-0.57-1.09-0.93-0.82-1.08l0.85-0.47l4.72-3.37c2.01-1.5,3.4-2.69,4.16-3.54c1.48-1.66,2.23-3.05,2.23-4.16
			c0-0.78-0.78-1.23-2.34-1.35c-0.2-0.31-0.29-0.64-0.29-1s0.19-0.7,0.57-1.04s0.86-0.63,1.45-0.86
			C425.26,248.99,426.58,248.73,427.96,248.73z"/>
	</g>
</g>
</svg>
