<?xml version="1.0" encoding="utf-8"?>
<!-- Generator: Adobe Illustrator 28.2.0, SVG Export Plug-In . SVG Version: 6.00 Build 0)  -->
<svg version="1.1" xmlns="http://www.w3.org/2000/svg" xmlns:xlink="http://www.w3.org/1999/xlink" x="0px" y="0px"
	 viewBox="0 0 467 99" style="enable-background:new 0 0 467 99;" xml:space="preserve">
<style type="text/css">
	.st0{fill:#FDFDFD;}
	.st1{fill:#268BF9;}
	.st2{fill:#FDBCD1;}
	.st3{fill:#FB4280;}
	.st4{fill:#FAC64E;}
</style>
<g id="Layer_0_xA0_Image_00000043455866949995492370000012220975060965918383_">
</g>
<g id="Layer_3_xA0_Image_00000141414017591367364130000016947191766456040592_">
	<g>
		<g>
			<path class="st0" d="M18.79,78.83c-3.57,0-7.14,0-10.72,0c0-20.59,0-41.19,0-61.83c22.82,0,45.64,0,68.46,0
				c0,14.84,0,29.67,0,44.5c-3.07-5.43-6.15-10.86-9.44-16.68c-0.68,1.06-1.07,1.61-1.4,2.18c-2.16,3.74-4.41,7.44-6.42,11.27
				c-1.23,2.34-2.79,3.42-5.53,3.28c-4.32-0.22-8.66-0.08-12.99-0.07c-0.71,0-1.41,0.09-2.22,0.15c0.1,0.54,0.08,0.84,0.21,1.06
				c2.72,4.77,5.41,9.56,8.26,14.25c0.38,0.63,1.59,1.05,2.42,1.07c5.22,0.1,10.45,0.01,15.67,0.08c1.43,0.02,2.26-0.51,2.94-1.74
				c1.67-3,3.42-5.95,5.19-8.89c1.05-1.74,2.21-3.42,3.31-5.12c0,5.5,0,11,0,16.5c-13.47,0-26.95,0-40.42,0
				c-0.01-0.12,0-0.24,0.02-0.36c1.5-0.51,0.34-1.36,0.09-1.81c-2.23-4.02-4.48-8.03-6.87-11.95c-1.18-1.93-1.23-3.58-0.03-5.52
				c2.34-3.79,4.51-7.69,6.73-11.55c0.38-0.66,0.65-1.39,1.01-2.19c-0.54-0.18-0.79-0.33-1.05-0.33c-5.36-0.02-10.72-0.1-16.07,0.06
				c-0.93,0.03-2.17,0.92-2.69,1.77c-2.61,4.27-4.98,8.69-7.55,12.98c-0.9,1.51-0.79,2.74,0.07,4.17c2.49,4.18,4.88,8.43,7.37,12.61
				c0.4,0.67,1.08,1.17,1.63,1.75C18.8,78.58,18.8,78.7,18.79,78.83z M22.95,34.36c1.43,0,2.25,0,3.07,0
				c4.33,0,8.66,0.03,12.99-0.01c2.27-0.02,3.9,0.77,4.96,2.91c1.26,2.51,2.75,4.91,4.16,7.34c1.15,1.99,2.34,3.96,3.59,6.08
				c0.48-0.42,0.8-0.59,0.95-0.85c2.68-4.63,5.43-9.24,7.94-13.96c0.44-0.82,0.2-2.35-0.28-3.26c-2.37-4.41-4.95-8.71-7.4-13.09
				c-0.73-1.29-1.69-1.8-3.17-1.77c-3.64,0.08-7.29-0.03-10.93,0.04c-7.55,0.14-5.48-1.29-9.48,5.44
				C27.26,26.75,25.27,30.32,22.95,34.36z"/>
			<path class="st1" d="M76.54,62.33c-1.11,1.71-2.26,3.38-3.31,5.12c-1.77,2.94-3.52,5.89-5.19,8.89
				c-0.68,1.23-1.51,1.75-2.94,1.74C59.87,78.01,54.65,78.1,49.42,78c-0.83-0.02-2.04-0.44-2.42-1.07
				c-2.85-4.69-5.53-9.48-8.26-14.25c-0.12-0.22-0.11-0.52-0.21-1.06c0.8-0.06,1.51-0.15,2.22-0.15c4.33-0.01,8.67-0.15,12.99,0.07
				c2.74,0.14,4.3-0.94,5.53-3.28c2.01-3.82,4.26-7.52,6.42-11.27c0.33-0.57,0.71-1.12,1.4-2.18c3.3,5.82,6.37,11.25,9.44,16.68
				C76.54,61.78,76.54,62.05,76.54,62.33z"/>
			<path class="st2" d="M36.14,78.46c-0.03,0.12-0.03,0.24-0.02,0.36c-5.77,0-11.55,0-17.32,0c0.01-0.12,0-0.24-0.02-0.36
				C24.56,78.46,30.35,78.46,36.14,78.46z"/>
			<path class="st3" d="M36.14,78.46c-5.79,0-11.58,0-17.37,0c-0.55-0.58-1.23-1.08-1.63-1.75c-2.49-4.19-4.88-8.43-7.37-12.61
				c-0.85-1.43-0.97-2.67-0.07-4.17c2.57-4.29,4.94-8.71,7.55-12.98c0.52-0.85,1.76-1.74,2.69-1.77c5.35-0.17,10.71-0.08,16.07-0.06
				c0.25,0,0.5,0.15,1.05,0.33c-0.36,0.79-0.63,1.52-1.01,2.19c-2.22,3.87-4.39,7.76-6.73,11.55c-1.2,1.94-1.15,3.59,0.03,5.52
				c2.4,3.92,4.65,7.93,6.87,11.95C36.48,77.1,37.65,77.95,36.14,78.46z"/>
			<path class="st4" d="M22.95,34.36c2.32-4.04,4.31-7.62,6.4-11.13c3.99-6.72,1.92-5.3,9.48-5.44c3.64-0.07,7.29,0.04,10.93-0.04
				c1.48-0.03,2.45,0.47,3.17,1.77c2.45,4.37,5.03,8.67,7.4,13.09c0.48,0.9,0.72,2.43,0.28,3.26c-2.51,4.73-5.25,9.33-7.94,13.96
				c-0.15,0.27-0.47,0.43-0.95,0.85c-1.25-2.12-2.43-4.09-3.59-6.08c-1.41-2.44-2.91-4.83-4.16-7.34c-1.07-2.14-2.69-2.93-4.96-2.91
				c-4.33,0.04-8.66,0.01-12.99,0.01C25.2,34.36,24.38,34.36,22.95,34.36z"/>
		</g>
	</g>
	<g>
		<path d="M130.94,57.5c0.23,0.66,0.35,1.24,0.35,1.73c0,0.49-0.07,0.83-0.22,1.03c-0.15,0.2-0.34,0.34-0.57,0.44
			c-0.23,0.1-0.51,0.18-0.82,0.23c-0.31,0.06-0.69,0.22-1.14,0.47c-0.86,0.49-1.29,1.78-1.29,3.87v6.83
			c-0.25,0.53-0.79,1.21-1.61,2.05c-0.82,0.84-1.93,1.65-3.34,2.43c-3.44,1.92-7.21,2.87-11.32,2.87c-4.11,0-7.51-0.54-10.21-1.61
			s-4.95-2.57-6.77-4.48c-3.65-3.85-5.48-8.97-5.48-15.38c0-3.94,0.63-7.45,1.89-10.52c1.26-3.07,2.96-5.63,5.11-7.71
			c4.39-4.26,9.9-6.39,16.52-6.39c5.29,0,9.25,0.96,11.87,2.87c2.07,1.52,3.11,3.45,3.11,5.77c0,1.45-0.42,2.61-1.26,3.49
			c-0.8,0.84-1.85,1.26-3.13,1.26c-1.13,0-1.93-0.15-2.4-0.44c0.1-0.62,0.15-1.4,0.15-2.31c0-0.92-0.2-1.81-0.6-2.68
			c-0.4-0.87-0.99-1.56-1.77-2.07c-1.35-0.9-3.38-1.35-6.09-1.35c-2.71,0-5.03,0.35-6.96,1.05c-1.92,0.7-3.55,1.79-4.88,3.25
			c-2.75,3.01-4.13,7.44-4.13,13.3c0,12.87,5.49,19.31,16.46,19.31c2.6,0,4.83-0.4,6.71-1.2c0.6-0.25,1.07-0.54,1.41-0.85
			l-0.03-8.38c0-1.41-0.92-2.37-2.75-2.9c-0.45-0.12-0.91-0.22-1.38-0.32c-0.47-0.1-0.93-0.2-1.39-0.31
			c-0.46-0.11-0.85-0.25-1.16-0.42c-0.63-0.31-0.94-0.83-0.94-1.57s0.15-1.26,0.44-1.6c0.45,0.16,1.42,0.23,2.9,0.23H130.94z"/>
		<path d="M136.06,62.65c0-2.38,0.23-4.52,0.7-6.42c0.47-1.89,1.11-3.56,1.93-5.01c0.82-1.45,1.79-2.68,2.9-3.71s2.3-1.86,3.57-2.5
			c2.48-1.27,5.2-1.9,8.17-1.9c3.81,0,7.04,1.39,9.7,4.16c2.95,3.05,4.42,7.07,4.42,12.07c0,6.56-1.79,11.67-5.36,15.32
			c-3.11,3.15-6.83,4.72-11.16,4.72c-4.53,0-8.16-1.59-10.9-4.78C137.39,71.54,136.06,67.56,136.06,62.65z M152.68,74.61
			c1.31,0,2.48-0.31,3.52-0.92c1.04-0.62,1.91-1.46,2.64-2.53c1.45-2.23,2.17-5.12,2.17-8.67c0-3.91-0.76-7.23-2.29-9.96
			c-1.72-3.14-4.19-4.72-7.41-4.72c-2.6,0-4.68,1-6.24,2.99c-1.66,2.11-2.49,5.06-2.49,8.85c0,4.75,1.04,8.5,3.13,11.25
			C147.58,73.37,149.9,74.61,152.68,74.61z"/>
		<path d="M188.65,78.97c-0.39-0.1-1.02-0.15-1.88-0.15h-8.79c-1.88,0-3.08-0.33-3.6-1c-0.22-0.25-0.32-0.55-0.32-0.88
			c0-0.82,0.16-1.42,0.47-1.82c0.47,0.16,1.01,0.23,1.61,0.23c0.6,0,1.05-0.24,1.35-0.73c0.29-0.49,0.43-1.4,0.41-2.72v-36.3
			c0-1.35-0.14-2.22-0.41-2.61c-0.41-0.62-1.13-0.94-2.17-0.94c-0.31,0-0.63,0.03-0.95,0.1c-0.32,0.07-0.57,0.06-0.73-0.03
			c-0.17-0.09-0.3-0.21-0.4-0.37c-0.25-0.39-0.23-0.79,0.07-1.19c0.3-0.4,0.74-0.82,1.3-1.27c0.57-0.45,1.19-0.84,1.88-1.17
			c1.46-0.76,2.73-1.14,3.79-1.14c1.06,0,1.86,0.16,2.37,0.47c0.52,0.31,0.9,0.73,1.16,1.26c0.43,0.86,0.64,2.25,0.64,4.16V72.2
			c0,1.62,0.49,2.62,1.46,2.99c0.27,0.12,0.6,0.22,0.98,0.29c0.38,0.08,0.73,0.17,1.04,0.28c0.31,0.11,0.56,0.23,0.73,0.37
			c0.29,0.25,0.44,0.66,0.44,1.23C189.12,78.04,188.96,78.58,188.65,78.97z M201.04,43.11c3.05,0,4.57,0.94,4.57,2.81
			c0,2.36-2.37,5.62-7.12,9.79c-1.84,1.62-3.68,3.01-5.54,4.16c1.25,1.15,2.53,2.65,3.84,4.48l3.08,4.34
			c2.58,3.69,4.52,5.54,5.83,5.54c1.07,0,1.78-0.11,2.12-0.32c0.34-0.21,0.59-0.33,0.75-0.35c0.16-0.02,0.36,0.05,0.62,0.21
			c0.25,0.16,0.38,0.42,0.38,0.79c0,0.37-0.15,0.83-0.45,1.39s-0.73,1.09-1.27,1.6c-1.33,1.23-2.76,1.85-4.31,1.85
			s-2.84-0.37-3.9-1.1s-2.04-1.68-2.96-2.84s-1.79-2.46-2.61-3.88l-2.43-4.16c-1.97-3.4-3.66-5.61-5.07-6.62
			c-0.82-0.57-1.09-0.93-0.82-1.08l0.85-0.47l4.72-3.37c2.01-1.5,3.4-2.69,4.16-3.54c1.48-1.66,2.23-3.05,2.23-4.16
			c0-0.78-0.78-1.23-2.34-1.35c-0.2-0.31-0.29-0.64-0.29-1s0.19-0.7,0.57-1.04c0.38-0.34,0.86-0.63,1.45-0.86
			C198.34,43.38,199.66,43.11,201.04,43.11z"/>
		<path d="M255.13,57.5c0.23,0.66,0.35,1.24,0.35,1.73c0,0.49-0.07,0.83-0.22,1.03c-0.15,0.2-0.34,0.34-0.57,0.44
			c-0.23,0.1-0.51,0.18-0.82,0.23s-0.69,0.22-1.14,0.47c-0.86,0.49-1.29,1.78-1.29,3.87v6.83c-0.25,0.53-0.79,1.21-1.61,2.05
			c-0.82,0.84-1.93,1.65-3.34,2.43c-3.44,1.92-7.21,2.87-11.32,2.87s-7.51-0.54-10.21-1.61s-4.95-2.57-6.77-4.48
			c-3.65-3.85-5.48-8.97-5.48-15.38c0-3.94,0.63-7.45,1.89-10.52c1.26-3.07,2.96-5.63,5.11-7.71c4.39-4.26,9.9-6.39,16.52-6.39
			c5.29,0,9.25,0.96,11.87,2.87c2.07,1.52,3.11,3.45,3.11,5.77c0,1.45-0.42,2.61-1.26,3.49c-0.8,0.84-1.85,1.26-3.13,1.26
			c-1.13,0-1.93-0.15-2.4-0.44c0.1-0.62,0.15-1.4,0.15-2.31c0-0.92-0.2-1.81-0.6-2.68c-0.4-0.87-0.99-1.56-1.77-2.07
			c-1.35-0.9-3.38-1.35-6.09-1.35s-5.03,0.35-6.96,1.05s-3.55,1.79-4.88,3.25c-2.75,3.01-4.13,7.44-4.13,13.3
			c0,12.87,5.49,19.31,16.46,19.31c2.6,0,4.83-0.4,6.71-1.2c0.61-0.25,1.07-0.54,1.41-0.85l-0.03-8.38c0-1.41-0.92-2.37-2.75-2.9
			c-0.45-0.12-0.91-0.22-1.38-0.32c-0.47-0.1-0.93-0.2-1.39-0.31s-0.84-0.25-1.16-0.42c-0.62-0.31-0.94-0.83-0.94-1.57
			s0.15-1.26,0.44-1.6c0.45,0.16,1.42,0.23,2.9,0.23H255.13z"/>
		<path d="M260.25,62.65c0-2.38,0.23-4.52,0.7-6.42c0.47-1.89,1.11-3.56,1.93-5.01c0.82-1.45,1.79-2.68,2.9-3.71s2.3-1.86,3.57-2.5
			c2.48-1.27,5.21-1.9,8.17-1.9c3.81,0,7.04,1.39,9.7,4.16c2.95,3.05,4.42,7.07,4.42,12.07c0,6.56-1.79,11.67-5.36,15.32
			c-3.11,3.15-6.83,4.72-11.16,4.72c-4.53,0-8.16-1.59-10.9-4.78C261.58,71.54,260.25,67.56,260.25,62.65z M276.87,74.61
			c1.31,0,2.48-0.31,3.52-0.92s1.91-1.46,2.64-2.53c1.45-2.23,2.17-5.12,2.17-8.67c0-3.91-0.76-7.23-2.29-9.96
			c-1.72-3.14-4.19-4.72-7.41-4.72c-2.6,0-4.68,1-6.24,2.99c-1.66,2.11-2.49,5.06-2.49,8.85c0,4.75,1.04,8.5,3.13,11.25
			C271.77,73.37,274.09,74.61,276.87,74.61z"/>
		<path d="M312.84,78.97c-0.39-0.1-1.02-0.15-1.88-0.15h-8.79c-1.88,0-3.08-0.33-3.6-1c-0.21-0.25-0.32-0.55-0.32-0.88
			c0-0.82,0.16-1.42,0.47-1.82c0.47,0.16,1.01,0.23,1.61,0.23s1.05-0.24,1.35-0.73c0.29-0.49,0.43-1.4,0.41-2.72v-36.3
			c0-1.35-0.14-2.22-0.41-2.61c-0.41-0.62-1.13-0.94-2.17-0.94c-0.31,0-0.63,0.03-0.95,0.1c-0.32,0.07-0.57,0.06-0.73-0.03
			s-0.3-0.21-0.4-0.37c-0.25-0.39-0.23-0.79,0.07-1.19c0.3-0.4,0.74-0.82,1.3-1.27c0.57-0.45,1.19-0.84,1.88-1.17
			c1.46-0.76,2.73-1.14,3.79-1.14s1.86,0.16,2.37,0.47c0.52,0.31,0.9,0.73,1.16,1.26c0.43,0.86,0.64,2.25,0.64,4.16V72.2
			c0,1.62,0.49,2.62,1.46,2.99c0.27,0.12,0.6,0.22,0.98,0.29c0.38,0.08,0.73,0.17,1.04,0.28s0.56,0.23,0.73,0.37
			c0.29,0.25,0.44,0.66,0.44,1.23C313.31,78.04,313.15,78.58,312.84,78.97z M325.23,43.11c3.05,0,4.57,0.94,4.57,2.81
			c0,2.36-2.37,5.62-7.12,9.79c-1.84,1.62-3.68,3.01-5.54,4.16c1.25,1.15,2.53,2.65,3.84,4.48l3.08,4.34
			c2.58,3.69,4.52,5.54,5.83,5.54c1.07,0,1.78-0.11,2.12-0.32c0.34-0.21,0.59-0.33,0.75-0.35c0.16-0.02,0.36,0.05,0.62,0.21
			c0.25,0.16,0.38,0.42,0.38,0.79c0,0.37-0.15,0.83-0.45,1.39s-0.73,1.09-1.27,1.6c-1.33,1.23-2.76,1.85-4.31,1.85
			s-2.84-0.37-3.9-1.1s-2.04-1.68-2.96-2.84s-1.79-2.46-2.61-3.88l-2.43-4.16c-1.97-3.4-3.66-5.61-5.07-6.62
			c-0.82-0.57-1.09-0.93-0.82-1.08l0.85-0.47l4.72-3.37c2.01-1.5,3.4-2.69,4.16-3.54c1.48-1.66,2.23-3.05,2.23-4.16
			c0-0.78-0.78-1.23-2.34-1.35c-0.2-0.31-0.29-0.64-0.29-1s0.19-0.7,0.57-1.04c0.38-0.34,0.86-0.63,1.45-0.86
			C322.53,43.38,323.85,43.11,325.23,43.11z"/>
		<path d="M379.32,57.5c0.23,0.66,0.35,1.24,0.35,1.73c0,0.49-0.07,0.83-0.22,1.03c-0.15,0.2-0.34,0.34-0.57,0.44
			c-0.23,0.1-0.51,0.18-0.82,0.23s-0.69,0.22-1.14,0.47c-0.86,0.49-1.29,1.78-1.29,3.87v6.83c-0.25,0.53-0.79,1.21-1.61,2.05
			c-0.82,0.84-1.93,1.65-3.34,2.43c-3.44,1.92-7.21,2.87-11.32,2.87s-7.51-0.54-10.21-1.61s-4.95-2.57-6.77-4.48
			c-3.65-3.85-5.48-8.97-5.48-15.38c0-3.94,0.63-7.45,1.89-10.52c1.26-3.07,2.96-5.63,5.11-7.71c4.39-4.26,9.9-6.39,16.52-6.39
			c5.29,0,9.25,0.96,11.87,2.87c2.07,1.52,3.11,3.45,3.11,5.77c0,1.45-0.42,2.61-1.26,3.49c-0.8,0.84-1.85,1.26-3.13,1.26
			c-1.13,0-1.93-0.15-2.4-0.44c0.1-0.62,0.15-1.4,0.15-2.31c0-0.92-0.2-1.81-0.6-2.68c-0.4-0.87-0.99-1.56-1.77-2.07
			c-1.35-0.9-3.38-1.35-6.09-1.35s-5.03,0.35-6.96,1.05s-3.55,1.79-4.88,3.25c-2.75,3.01-4.13,7.44-4.13,13.3
			c0,12.87,5.49,19.31,16.46,19.31c2.6,0,4.83-0.4,6.71-1.2c0.61-0.25,1.07-0.54,1.41-0.85l-0.03-8.38c0-1.41-0.92-2.37-2.75-2.9
			c-0.45-0.12-0.91-0.22-1.38-0.32c-0.47-0.1-0.93-0.2-1.39-0.31s-0.84-0.25-1.16-0.42c-0.62-0.31-0.94-0.83-0.94-1.57
			s0.15-1.26,0.44-1.6c0.45,0.16,1.42,0.23,2.9,0.23H379.32z"/>
		<path d="M384.44,62.65c0-2.38,0.23-4.52,0.7-6.42c0.47-1.89,1.11-3.56,1.93-5.01c0.82-1.45,1.79-2.68,2.9-3.71s2.3-1.86,3.57-2.5
			c2.48-1.27,5.21-1.9,8.17-1.9c3.81,0,7.04,1.39,9.7,4.16c2.95,3.05,4.42,7.07,4.42,12.07c0,6.56-1.79,11.67-5.36,15.32
			c-3.11,3.15-6.83,4.72-11.16,4.72c-4.53,0-8.16-1.59-10.9-4.78C385.77,71.54,384.44,67.56,384.44,62.65z M401.05,74.61
			c1.31,0,2.48-0.31,3.52-0.92s1.91-1.46,2.64-2.53c1.45-2.23,2.17-5.12,2.17-8.67c0-3.91-0.76-7.23-2.29-9.96
			c-1.72-3.14-4.19-4.72-7.41-4.72c-2.6,0-4.68,1-6.24,2.99c-1.66,2.11-2.49,5.06-2.49,8.85c0,4.75,1.04,8.5,3.13,11.25
			C395.96,73.37,398.28,74.61,401.05,74.61z"/>
		<path d="M437.03,78.97c-0.39-0.1-1.02-0.15-1.88-0.15h-8.79c-1.88,0-3.08-0.33-3.6-1c-0.21-0.25-0.32-0.55-0.32-0.88
			c0-0.82,0.16-1.42,0.47-1.82c0.47,0.16,1.01,0.23,1.61,0.23s1.05-0.24,1.35-0.73c0.29-0.49,0.43-1.4,0.41-2.72v-36.3
			c0-1.35-0.14-2.22-0.41-2.61c-0.41-0.62-1.13-0.94-2.17-0.94c-0.31,0-0.63,0.03-0.95,0.1c-0.32,0.07-0.57,0.06-0.73-0.03
			s-0.3-0.21-0.4-0.37c-0.25-0.39-0.23-0.79,0.07-1.19c0.3-0.4,0.74-0.82,1.3-1.27c0.57-0.45,1.19-0.84,1.88-1.17
			c1.46-0.76,2.73-1.14,3.79-1.14s1.86,0.16,2.37,0.47c0.52,0.31,0.9,0.73,1.16,1.26c0.43,0.86,0.64,2.25,0.64,4.16V72.2
			c0,1.62,0.49,2.62,1.46,2.99c0.27,0.12,0.6,0.22,0.98,0.29c0.38,0.08,0.73,0.17,1.04,0.28s0.56,0.23,0.73,0.37
			c0.29,0.25,0.44,0.66,0.44,1.23C437.5,78.04,437.34,78.58,437.03,78.97z M449.42,43.11c3.05,0,4.57,0.94,4.57,2.81
			c0,2.36-2.37,5.62-7.12,9.79c-1.84,1.62-3.68,3.01-5.54,4.16c1.25,1.15,2.53,2.65,3.84,4.48l3.08,4.34
			c2.58,3.69,4.52,5.54,5.83,5.54c1.07,0,1.78-0.11,2.12-0.32c0.34-0.21,0.59-0.33,0.75-0.35c0.16-0.02,0.36,0.05,0.62,0.21
			c0.25,0.16,0.38,0.42,0.38,0.79c0,0.37-0.15,0.83-0.45,1.39s-0.73,1.09-1.27,1.6c-1.33,1.23-2.76,1.85-4.31,1.85
			s-2.84-0.37-3.9-1.1s-2.04-1.68-2.96-2.84s-1.79-2.46-2.61-3.88l-2.43-4.16c-1.97-3.4-3.66-5.61-5.07-6.62
			c-0.82-0.57-1.09-0.93-0.82-1.08l0.85-0.47l4.72-3.37c2.01-1.5,3.4-2.69,4.16-3.54c1.48-1.66,2.23-3.05,2.23-4.16
			c0-0.78-0.78-1.23-2.34-1.35c-0.2-0.31-0.29-0.64-0.29-1s0.19-0.7,0.57-1.04c0.38-0.34,0.86-0.63,1.45-0.86
			C446.72,43.38,448.04,43.11,449.42,43.11z"/>
	</g>
</g>
</svg>
