<?xml version="1.0" encoding="utf-8"?>
<!-- Generator: Adobe Illustrator 28.2.0, SVG Export Plug-In . SVG Version: 6.00 Build 0)  -->
<svg version="1.1" xmlns="http://www.w3.org/2000/svg" xmlns:xlink="http://www.w3.org/1999/xlink" x="0px" y="0px"
	 viewBox="0 0 197 177" style="enable-background:new 0 0 197 177;" xml:space="preserve">
<style type="text/css">
	.st0{fill:#FDFDFD;}
	.st1{fill:#268BF9;}
	.st2{fill:#FDBCD1;}
	.st3{fill:#FB4280;}
	.st4{fill:#FAC64E;}
</style>
<g id="Layer_0_xA0_Image_00000043455866949995492370000012220975060965918383_">
</g>
<g id="Layer_3_xA0_Image_00000141414017591367364130000016947191766456040592_">
	<g>
		<g>
			<path class="st0" d="M39.99,161c-8.32,0-16.65,0-24.98,0C15,111.37,15,61.73,15,12c54.99,0,110,0,165,0c0,35.67,0,71.32,0,106.97
				c-7.45-13.17-14.91-26.34-22.9-40.46c-1.66,2.59-2.59,3.9-3.39,5.3c-5.24,9.09-10.7,18.06-15.57,27.33
				c-2.98,5.68-6.76,8.3-13.41,7.97c-10.47-0.53-20.99-0.19-31.49-0.18c-1.71,0-3.42,0.22-5.37,0.36c0.24,1.31,0.2,2.04,0.5,2.57
				c6.6,11.56,13.11,23.18,20.02,34.56c0.93,1.53,3.85,2.55,5.87,2.59c12.66,0.23,25.33,0.02,37.99,0.18
				c3.47,0.05,5.49-1.24,7.14-4.21c4.04-7.28,8.28-14.44,12.58-21.57c2.55-4.22,5.35-8.29,8.03-12.43c0,13.34,0,26.68,0,40.03
				c-32.67,0-65.34,0-98.01,0c-0.02-0.3,0-0.59,0.06-0.88c3.65-1.24,0.82-3.29,0.21-4.4c-5.4-9.75-10.85-19.48-16.67-28.98
				c-2.86-4.68-2.99-8.68-0.08-13.39c5.68-9.2,10.94-18.65,16.32-28.03c0.93-1.61,1.57-3.38,2.46-5.31c-1.31-0.43-1.92-0.8-2.53-0.8
				c-12.99-0.04-25.98-0.25-38.96,0.15c-2.26,0.07-5.27,2.24-6.53,4.3c-6.34,10.35-12.07,21.07-18.31,31.49
				c-2.19,3.66-1.91,6.65,0.16,10.13c6.04,10.15,11.84,20.44,17.87,30.6c0.96,1.62,2.61,2.84,3.95,4.25
				C40,160.41,40.01,160.7,39.99,161z M119.79,92.77c1.25-1.17,2.14-1.69,2.59-2.46c6.42-11.1,12.97-22.14,18.96-33.47
				c1.06-2.01,0.55-5.72-0.61-7.9c-5.74-10.71-12-21.14-17.94-31.75c-1.75-3.12-4.04-4.41-7.66-4.36c-12.33,0.16-24.66,0.16-36.99,0
				c-3.45-0.05-5.62,1.24-7.27,4.13C64.75,27.66,58.53,38.3,52.4,49c-0.61,1.07-0.9,2.33-1.57,4.13c2.64,0,4.62,0,6.6,0
				c10.5,0,21,0.07,31.49-0.03c5.49-0.05,9.61,1.71,12.06,7c1.67,3.61,3.89,6.98,5.89,10.44C111.09,77.82,115.33,85.1,119.79,92.77z
				"/>
			<path class="st1" d="M180,120.97c-2.69,4.14-5.49,8.21-8.03,12.43c-4.3,7.13-8.54,14.29-12.58,21.57
				c-1.65,2.97-3.67,4.26-7.14,4.21c-12.66-0.17-25.33,0.05-37.99-0.18c-2.02-0.04-4.94-1.06-5.87-2.59
				c-6.9-11.38-13.42-23-20.02-34.56c-0.3-0.53-0.26-1.25-0.5-2.57c1.95-0.14,3.66-0.35,5.37-0.36c10.5-0.01,21.01-0.35,31.49,0.18
				c6.65,0.34,10.43-2.29,13.41-7.97c4.87-9.28,10.33-18.25,15.57-27.33c0.8-1.39,1.73-2.71,3.39-5.3
				c7.99,14.12,15.44,27.29,22.9,40.46C180,119.64,180,120.31,180,120.97z"/>
			<path class="st2" d="M82.05,160.12c-0.06,0.29-0.08,0.59-0.06,0.88c-14,0-28,0-42,0c0.03-0.3,0.01-0.59-0.06-0.89
				C53.97,160.12,68.01,160.12,82.05,160.12z"/>
			<path class="st3" d="M82.05,160.12c-14.04,0-28.08,0-42.12,0c-1.33-1.4-2.98-2.62-3.95-4.25c-6.03-10.16-11.83-20.45-17.87-30.6
				c-2.07-3.48-2.36-6.47-0.16-10.13c6.24-10.41,11.98-21.13,18.31-31.49c1.26-2.06,4.26-4.23,6.53-4.3
				c12.98-0.4,25.97-0.19,38.96-0.15c0.61,0,1.22,0.37,2.53,0.8c-0.88,1.92-1.53,3.7-2.46,5.31c-5.38,9.38-10.65,18.83-16.32,28.03
				c-2.91,4.72-2.78,8.71,0.08,13.39c5.82,9.5,11.27,19.24,16.67,28.98C82.87,156.83,85.7,158.88,82.05,160.12z"/>
			<path class="st4" d="M119.79,92.77c-4.46-7.67-8.69-14.94-12.91-22.23c-2-3.46-4.22-6.82-5.89-10.44
				c-2.44-5.29-6.57-7.06-12.06-7c-10.5,0.1-21,0.03-31.49,0.03c-1.98,0-3.96,0-6.6,0c0.67-1.8,0.96-3.06,1.57-4.13
				c6.13-10.69,12.35-21.33,18.46-32.03c1.65-2.9,3.82-4.18,7.27-4.13c12.33,0.16,24.66,0.17,36.99,0c3.62-0.05,5.91,1.24,7.66,4.36
				c5.95,10.6,12.21,21.03,17.94,31.75c1.17,2.18,1.68,5.89,0.61,7.9c-5.99,11.33-12.54,22.36-18.96,33.47
				C121.93,91.08,121.04,91.6,119.79,92.77z"/>
		</g>
	</g>
</g>
</svg>
