<?xml version="1.0" encoding="utf-8"?>
<!-- Generator: Adobe Illustrator 28.3.0, SVG Export Plug-In . SVG Version: 6.00 Build 0)  -->
<svg version="1.1" id="Layer_1" xmlns="http://www.w3.org/2000/svg" xmlns:xlink="http://www.w3.org/1999/xlink" x="0px" y="0px"
	 viewBox="0 0 537.73 346.78" style="enable-background:new 0 0 537.73 346.78;" xml:space="preserve">
<style type="text/css">
	.st0{fill:#FF8500;}
</style>
<g>
	<path class="st0" d="M198.06,330.38h-6.65v-36.67h6.65V330.38z"/>
	<path class="st0" d="M231.81,321.05c0,1.14-0.15,2.17-0.43,3.08c-0.29,0.91-0.67,1.71-1.15,2.4c-0.48,0.69-1.03,1.28-1.66,1.76
		c-0.63,0.49-1.29,0.88-1.98,1.19c-0.69,0.31-1.39,0.53-2.1,0.68c-0.71,0.15-1.38,0.22-2.01,0.22h-18v-6.65h17.95
		c0.9,0,1.59-0.23,2.05-0.69c0.46-0.46,0.69-1.13,0.69-2c-0.09-1.77-0.98-2.66-2.69-2.66h-10.31c-1.47,0-2.71-0.26-3.73-0.77
		s-1.85-1.15-2.49-1.92s-1.1-1.59-1.38-2.48s-0.42-1.71-0.42-2.48c0-1.48,0.26-2.73,0.79-3.75c0.53-1.01,1.19-1.84,1.99-2.47
		s1.67-1.09,2.61-1.37s1.82-0.42,2.63-0.42h16.34v6.65h-16.29c-0.34,0-0.61,0.04-0.81,0.12c-0.2,0.08-0.34,0.18-0.44,0.31
		s-0.15,0.26-0.17,0.41c-0.02,0.15-0.03,0.29-0.03,0.42c0.02,0.27,0.07,0.49,0.15,0.64c0.08,0.15,0.19,0.26,0.32,0.33
		c0.13,0.07,0.27,0.11,0.44,0.12c0.16,0.01,0.32,0.01,0.47,0.01h10.31c1.7,0,3.15,0.31,4.35,0.92c1.19,0.61,2.16,1.38,2.89,2.31
		c0.73,0.93,1.27,1.94,1.6,3.03C231.65,319.1,231.81,320.11,231.81,321.05z"/>
	<path d="M263.19,321.05c0,1.14-0.14,2.17-0.43,3.08c-0.29,0.91-0.67,1.71-1.15,2.4c-0.48,0.69-1.03,1.28-1.66,1.76
		c-0.63,0.49-1.29,0.88-1.98,1.19c-0.69,0.31-1.39,0.53-2.1,0.68c-0.71,0.15-1.38,0.22-2.01,0.22h-18v-6.65h17.95
		c0.9,0,1.59-0.23,2.05-0.69c0.46-0.46,0.69-1.13,0.69-2c-0.09-1.77-0.98-2.66-2.68-2.66h-10.31c-1.47,0-2.71-0.26-3.73-0.77
		s-1.85-1.15-2.49-1.92s-1.1-1.59-1.38-2.48s-0.42-1.71-0.42-2.48c0-1.48,0.26-2.73,0.79-3.75c0.53-1.01,1.19-1.84,1.99-2.47
		s1.67-1.09,2.61-1.37s1.82-0.42,2.63-0.42h16.34v6.65H243.6c-0.34,0-0.61,0.04-0.81,0.12c-0.2,0.08-0.34,0.18-0.44,0.31
		s-0.15,0.26-0.17,0.41c-0.02,0.15-0.03,0.29-0.03,0.42c0.02,0.27,0.07,0.49,0.15,0.64c0.08,0.15,0.19,0.26,0.32,0.33
		c0.13,0.07,0.27,0.11,0.44,0.12c0.16,0.01,0.32,0.01,0.47,0.01h10.31c1.7,0,3.15,0.31,4.35,0.92c1.19,0.61,2.16,1.38,2.89,2.31
		c0.73,0.93,1.27,1.94,1.6,3.03S263.19,320.11,263.19,321.05z"/>
	<path d="M296.38,321.23c0,0.92-0.16,1.91-0.49,2.98s-0.85,2.05-1.57,2.97c-0.73,0.91-1.67,1.67-2.84,2.29
		c-1.17,0.61-2.59,0.92-4.26,0.92h-11.99c-0.92,0-1.91-0.16-2.98-0.49c-1.07-0.32-2.05-0.85-2.97-1.57s-1.67-1.67-2.29-2.84
		c-0.61-1.17-0.92-2.59-0.92-4.26c0-0.92,0.16-1.92,0.49-2.99c0.32-1.07,0.85-2.07,1.57-2.98s1.67-1.67,2.84-2.29
		c1.17-0.61,2.59-0.92,4.26-0.92h11.99v6.34h-11.99c-0.9,0-1.6,0.28-2.1,0.83s-0.74,1.24-0.74,2.06c0,0.87,0.29,1.55,0.86,2.03
		c0.57,0.49,1.25,0.73,2.03,0.73h11.94c0.9,0,1.6-0.27,2.1-0.82s0.74-1.23,0.74-2.05v-9.28c0-0.87-0.27-1.56-0.81-2.07
		s-1.21-0.77-2.03-0.77h-14.6v-6.32h14.6c0.92,0,1.91,0.16,2.98,0.49c1.06,0.32,2.05,0.85,2.97,1.57s1.67,1.67,2.29,2.84
		c0.61,1.17,0.92,2.59,0.92,4.26V321.23z"/>
	<path class="st0" d="M326.25,309.39h-14.96c-0.9,0-1.59,0.23-2.05,0.68c-0.46,0.45-0.69,1.11-0.69,1.98v18.34h-6.65v-18.34
		c0-1.14,0.14-2.16,0.43-3.07c0.29-0.9,0.68-1.7,1.16-2.39c0.49-0.69,1.04-1.28,1.67-1.76c0.63-0.49,1.29-0.88,1.98-1.19
		s1.39-0.53,2.1-0.68c0.71-0.14,1.37-0.22,1.98-0.22h15.01V309.39z"/>
	<path class="st0" d="M357.02,321.23c0,0.92-0.16,1.91-0.49,2.98s-0.85,2.05-1.57,2.97c-0.73,0.91-1.67,1.67-2.84,2.29
		c-1.17,0.61-2.59,0.92-4.26,0.92h-11.99c-0.92,0-1.91-0.16-2.98-0.49c-1.07-0.32-2.05-0.85-2.97-1.57s-1.67-1.67-2.29-2.84
		c-0.61-1.17-0.92-2.59-0.92-4.26c0-0.92,0.16-1.92,0.49-2.99c0.32-1.07,0.85-2.07,1.57-2.98s1.67-1.67,2.84-2.29
		c1.17-0.61,2.59-0.92,4.26-0.92h11.99v6.34h-11.99c-0.9,0-1.6,0.28-2.1,0.83s-0.74,1.24-0.74,2.06c0,0.87,0.29,1.55,0.86,2.03
		c0.57,0.49,1.25,0.73,2.03,0.73h11.94c0.9,0,1.6-0.27,2.1-0.82s0.74-1.23,0.74-2.05v-9.28c0-0.87-0.27-1.56-0.81-2.07
		s-1.21-0.77-2.03-0.77h-14.6v-6.32h14.6c0.92,0,1.91,0.16,2.98,0.49c1.06,0.32,2.05,0.85,2.97,1.57s1.67,1.67,2.29,2.84
		c0.61,1.17,0.92,2.59,0.92,4.26V321.23z"/>
</g>
<g>
	<g>
		<path class="st0" d="M0,88.54c2.28,1.63,3.76,2.39,4.85,3.52c22.33,23.09,49.55,39.15,77.63,53.96
			c16.06,8.46,32.13,16.9,48.28,25.18c4.48,2.3,6.75,5.49,8.23,10.42c2.66,8.87,6.57,17.36,9.79,26.08c0.56,1.5,0.25,3.33,0.34,5
			c-1.7-0.01-3.69,0.56-5.07-0.11c-26.95-13.1-54.07-25.87-80.63-39.72c-17.3-9.03-33.58-19.9-45.61-35.89
			C7.34,123.05,1.87,107.24,0,88.54z"/>
		<path class="st0" d="M537.73,87.59c-3.02,33.07-19.16,56.27-45.25,73.51c-21.21,14.01-44.16,24.57-67.08,35.28
			c-9.95,4.65-19.68,9.75-29.62,14.41c-1.84,0.86-4.22,0.59-6.35,0.83c0.32-2.14,0.33-4.38,1.02-6.4
			c3.05-8.93,5.96-17.95,9.65-26.62c1.36-3.19,4.26-6.42,7.3-8.08c20.44-11.17,41.2-21.76,61.67-32.87
			c23.35-12.68,45.29-27.38,63.92-46.59C534.08,89.94,535.54,89.17,537.73,87.59z"/>
		<path class="st0" d="M4.16,41.54C29.4,67.61,56.4,89.68,88.12,105.81c13.48,6.86,26.64,14.36,39.83,21.76
			c1.49,0.83,2.97,2.83,3.24,4.49c1.85,11.06,4.47,21.81,10.18,31.62c0.45,0.77-0.06,2.09-0.12,3.15c-1.54-0.12-3.31,0.22-4.59-0.42
			c-8.47-4.27-16.81-8.79-25.24-13.15c-26.18-13.55-52.32-27.15-76.06-44.84C20.57,97.41,9.67,83.7,6.39,65.13
			C5.02,57.38,4.86,49.41,4.16,41.54z"/>
		<path class="st0" d="M532.86,39.65c1.95,27.75-6.8,49.85-28.53,66.41c-24.36,18.56-51.39,32.61-78.43,46.64
			c-7.98,4.14-15.86,8.46-23.91,12.45c-1.51,0.75-3.6,0.33-5.42,0.45c0.41-1.49,0.76-2.99,1.23-4.45
			c2.94-9.31,6.29-18.51,8.67-27.95c0.91-3.62,2.16-5.78,5.41-7.53c18.16-9.77,36.58-19.13,54.2-29.8
			C490.95,80.81,513.18,62.32,532.86,39.65z"/>
		<path class="st0" d="M20.23,1.8c10.42,14.78,23.39,27.03,38.48,36.65c21.46,13.68,43.38,26.64,65.31,39.55
			c4.81,2.83,6.58,5.95,7.41,11.58c1.71,11.73,5.09,23.22,7.74,34.6c-1.53-0.68-4.18-1.79-6.78-3
			c-32.3-15.03-62.24-33.93-90.09-56.06C26.49,52.59,16.13,36.78,16.85,15.62c0.15-4.55,1.25-9.07,1.9-13.6
			C19.24,1.95,19.74,1.87,20.23,1.8z"/>
		<path class="st0" d="M398.61,123.06c2.59-9.05,5.22-17.77,7.52-26.58c0.79-3.02,1.14-6.27,1.03-9.38
			c-0.19-5.18,2.7-7.63,6.82-9.89c24.67-13.55,49.24-27.27,71.79-44.29c12.17-9.18,23.08-19.58,32.45-32.91
			c3.07,8.18,3.38,15.64,2.45,23.18c-2.17,17.66-12.07,30.75-25.5,41.39c-28.3,22.42-58.68,41.54-91.49,56.71
			c-1.36,0.63-2.74,1.21-4.12,1.77C399.28,123.15,398.92,123.06,398.61,123.06z"/>
		<path class="st0" d="M245.21,242.68c-0.74-29.36-16.21-50.79-36.25-69.45c-8.85-8.24-19.22-14.83-28.76-22.35
			c-7.71-6.07-15.72-11.87-22.68-18.73c-11.53-11.36-17.97-25.42-18.79-41.79c-0.04-0.8,0.11-1.61,0.24-3.25
			c2,0.88,3.71,1.36,5.13,2.28c22.14,14.48,45.28,27.6,64.79,45.78c20.08,18.72,34.45,40.95,40.55,68.02
			C252.46,216.7,251.14,229.81,245.21,242.68z"/>
		<path class="st0" d="M400.17,85.38c-0.63,11.63-3.06,21.14-7.72,30.09c-5.98,11.49-15.06,20.21-25.2,27.95
			c-12.69,9.69-26.12,18.55-37.88,29.24c-8.87,8.06-16.37,17.95-23.1,27.95c-8.15,12.11-13.44,25.62-12.51,40.85
			c-6.02-12.52-7.51-25.58-4.48-39.05c6.91-30.63,23.54-55.45,47.89-74.54c17.9-14.03,37.34-26.09,56.14-38.97
			C395.01,87.73,397.01,86.98,400.17,85.38z"/>
		<path class="st0" d="M169.52,262.66c-2.67-0.46-4.33-0.41-5.68-1.03c-32.26-14.78-64.48-29.61-93.51-50.41
			c-19.15-13.72-35.69-29.97-48.93-49.5c-0.56-0.82-1.11-1.67-1.49-2.59c-0.73-1.81-1.34-3.66-2.53-7c4.27,2.79,7.34,4.79,10.4,6.81
			c28.99,19.13,59.58,35.26,91.37,49.21c9.28,4.07,18.14,9.13,27.06,13.98c1.91,1.04,3.73,2.86,4.77,4.77
			c5.8,10.64,11.35,21.42,16.97,32.16C168.33,259.77,168.6,260.53,169.52,262.66z"/>
		<path class="st0" d="M520.09,153.11c-1.36,2.73-2.43,5.66-4.11,8.18c-16.55,24.86-38.27,44.51-63.95,59.17
			c-25.23,14.41-51.54,26.93-77.43,40.2c-1.25,0.64-2.91,0.48-5.77,0.88c1.55-2.79,2.42-4.29,3.22-5.83
			c4.83-9.27,9.48-18.64,14.57-27.77c1.6-2.86,3.9-6,6.68-7.41c19.43-9.84,39.41-18.61,58.54-28.98
			c21.18-11.47,41.65-24.26,62.42-36.49c1.55-0.91,3.06-1.87,4.59-2.81C519.27,152.55,519.68,152.83,520.09,153.11z"/>
		<path class="st0" d="M229.13,267.83c-1.26-17.71-7.05-32.76-18.35-44.82c-10.54-11.24-22.53-21.12-33.89-31.59
			c-7.33-6.75-15.2-13-21.89-20.33c-9.19-10.07-13.63-22.61-15.89-36.65c1.96,0.65,3.62,0.87,4.93,1.67
			c24.71,15.18,49.42,30.39,68.95,52.35c10.45,11.76,20.37,24.06,23.45,40.01C239.06,242.04,237.76,255.24,229.13,267.83z"/>
		<path class="st0" d="M309.79,265.93c-11.47-17.26-11.5-35.24-2.19-53.16c9.84-18.94,24.36-34.17,41.28-46.81
			c14.37-10.74,29.61-20.31,44.53-30.3c1.42-0.95,3.28-1.26,6.58-2.48c-2.41,7.75-3.92,14.34-6.47,20.49
			c-5.92,14.24-16.69,24.51-28.37,34.18c-12.14,10.05-24.04,20.48-35.21,31.59c-10.73,10.66-16.71,24.24-19.6,39.08
			C309.86,260.93,309.95,263.45,309.79,265.93z"/>
		<path class="st0" d="M147.51,181.76c2.45,1.27,5.03,2.35,7.34,3.84c19.38,12.48,38.19,25.66,52.42,44.22
			c7.25,9.45,11.61,20.22,12.56,32.07c0.53,6.6-1.51,12.74-7.22,17.59c-0.65-1.05-1.32-1.67-1.45-2.38
			c-2.44-13.76-11-23.64-20.81-32.65c-11.78-10.82-24.31-21.02-32.07-35.36c-4.56-8.43-8.24-17.33-12.32-26.03
			C146.49,182.63,147,182.2,147.51,181.76z"/>
		<path class="st0" d="M391.94,180.32c-5.88,20.97-16.38,37.93-31.65,52.03c-6.97,6.43-14.01,12.83-20.48,19.75
			c-6.06,6.49-10.75,13.98-12.05,23.11c-0.13,0.91-0.82,1.74-1.25,2.61c-6-3.14-8.86-11.77-7.38-20.6
			c2.69-16.13,11.12-29.05,22.44-40.27c13.42-13.3,28.63-24.34,44.87-33.95C387.84,182.17,389.39,181.55,391.94,180.32z"/>
		<path class="st0" d="M377.81,230.94c-1.99,3.8-3.32,6.35-4.65,8.91c-7.78,14.93-18.2,27.82-30.45,39.25
			c-1.53,1.43-3.95,1.89-5.96,2.8c-0.42-2.17-1.64-4.57-1.1-6.45c1.27-4.39,2.72-9.01,5.3-12.7c8.51-12.16,20.35-20.92,32.04-29.77
			C373.94,232.26,375.26,232,377.81,230.94z"/>
		<path class="st0" d="M163.14,231.36c9.55,8.4,19.57,16.34,28.46,25.38c4.73,4.81,7.92,11.34,10.98,17.5
			c1.1,2.22-0.24,5.65-0.47,8.52c-2.5-1.27-5.43-2.06-7.43-3.88c-13.31-12.11-23.61-26.55-31.91-42.45
			c-0.58-1.12-0.89-2.38-1.32-3.57C162,232.36,162.57,231.86,163.14,231.36z"/>
	</g>
</g>
</svg>
