<?xml version="1.0" encoding="utf-8"?>
<!-- Generator: Adobe Illustrator 28.3.0, SVG Export Plug-In . SVG Version: 6.00 Build 0)  -->
<svg version="1.1" id="Layer_1" xmlns="http://www.w3.org/2000/svg" xmlns:xlink="http://www.w3.org/1999/xlink" x="0px" y="0px"
	 viewBox="0 0 268.4 59.46" style="enable-background:new 0 0 268.4 59.46;" xml:space="preserve">
<style type="text/css">
	.st0{fill:#FF8500;}
</style>
<g>
	<path class="st0" d="M105.06,44.52h-6.65V7.85h6.65V44.52z"/>
	<path class="st0" d="M138.81,35.19c0,1.14-0.14,2.17-0.43,3.08c-0.29,0.91-0.67,1.71-1.15,2.4s-1.03,1.28-1.66,1.76
		c-0.63,0.49-1.29,0.88-1.98,1.19c-0.69,0.31-1.39,0.53-2.1,0.68c-0.71,0.15-1.38,0.22-2.01,0.22h-18v-6.65h17.95
		c0.9,0,1.59-0.23,2.05-0.69c0.46-0.46,0.69-1.13,0.69-2c-0.09-1.77-0.98-2.66-2.69-2.66h-10.3c-1.47,0-2.71-0.26-3.73-0.77
		s-1.85-1.15-2.49-1.92s-1.1-1.59-1.38-2.48s-0.42-1.71-0.42-2.48c0-1.48,0.26-2.73,0.79-3.75c0.53-1.01,1.19-1.84,2-2.47
		s1.67-1.09,2.61-1.37s1.82-0.42,2.63-0.42h16.34v6.65h-16.29c-0.34,0-0.61,0.04-0.81,0.12c-0.2,0.08-0.34,0.18-0.43,0.31
		s-0.15,0.26-0.17,0.41c-0.02,0.15-0.03,0.29-0.03,0.42c0.02,0.27,0.07,0.49,0.15,0.64c0.09,0.15,0.19,0.26,0.32,0.33
		c0.13,0.07,0.27,0.11,0.43,0.12c0.16,0.01,0.32,0.01,0.47,0.01h10.3c1.71,0,3.15,0.31,4.35,0.92c1.19,0.61,2.16,1.38,2.89,2.31
		c0.73,0.93,1.27,1.94,1.6,3.03S138.81,34.25,138.81,35.19z"/>
	<path d="M170.19,35.19c0,1.14-0.14,2.17-0.43,3.08c-0.29,0.91-0.67,1.71-1.15,2.4c-0.48,0.69-1.03,1.28-1.66,1.76
		c-0.63,0.49-1.29,0.88-1.98,1.19c-0.69,0.31-1.39,0.53-2.1,0.68c-0.71,0.15-1.38,0.22-2.01,0.22h-18v-6.65h17.95
		c0.9,0,1.59-0.23,2.05-0.69c0.46-0.46,0.69-1.13,0.69-2c-0.09-1.77-0.98-2.66-2.68-2.66h-10.31c-1.47,0-2.71-0.26-3.73-0.77
		c-1.02-0.51-1.85-1.15-2.49-1.92c-0.64-0.77-1.1-1.59-1.38-2.48s-0.42-1.71-0.42-2.48c0-1.48,0.26-2.73,0.79-3.75
		c0.53-1.01,1.19-1.84,2-2.47c0.8-0.63,1.67-1.09,2.61-1.37s1.82-0.42,2.63-0.42h16.34v6.65H150.6c-0.34,0-0.61,0.04-0.8,0.12
		c-0.2,0.08-0.34,0.18-0.44,0.31s-0.15,0.26-0.17,0.41c-0.02,0.15-0.03,0.29-0.03,0.42c0.02,0.27,0.07,0.49,0.15,0.64
		s0.19,0.26,0.32,0.33c0.13,0.07,0.27,0.11,0.44,0.12c0.16,0.01,0.32,0.01,0.47,0.01h10.31c1.7,0,3.15,0.31,4.35,0.92
		c1.19,0.61,2.16,1.38,2.89,2.31c0.73,0.93,1.27,1.94,1.6,3.03S170.19,34.25,170.19,35.19z"/>
	<path d="M203.38,35.37c0,0.92-0.16,1.91-0.49,2.98s-0.85,2.05-1.57,2.97c-0.73,0.91-1.67,1.67-2.84,2.29
		c-1.17,0.61-2.59,0.92-4.26,0.92h-11.99c-0.92,0-1.91-0.16-2.98-0.49c-1.07-0.32-2.05-0.85-2.97-1.57s-1.67-1.67-2.29-2.84
		c-0.61-1.17-0.92-2.59-0.92-4.26c0-0.92,0.16-1.92,0.49-2.99c0.32-1.07,0.85-2.07,1.57-2.98s1.67-1.67,2.84-2.29
		c1.17-0.61,2.59-0.92,4.26-0.92h11.99v6.34h-11.99c-0.9,0-1.6,0.28-2.1,0.83s-0.74,1.24-0.74,2.06c0,0.87,0.29,1.55,0.86,2.03
		c0.57,0.49,1.25,0.73,2.03,0.73h11.94c0.9,0,1.6-0.27,2.1-0.82s0.74-1.23,0.74-2.05v-9.28c0-0.87-0.27-1.56-0.81-2.07
		s-1.21-0.77-2.03-0.77h-14.6v-6.32h14.6c0.92,0,1.91,0.16,2.98,0.49c1.06,0.32,2.05,0.85,2.97,1.57s1.67,1.67,2.29,2.84
		c0.61,1.17,0.92,2.59,0.92,4.26V35.37z"/>
	<path class="st0" d="M233.25,23.53h-14.96c-0.9,0-1.59,0.23-2.05,0.68c-0.46,0.45-0.69,1.11-0.69,1.98v18.34h-6.65V26.19
		c0-1.14,0.14-2.16,0.43-3.07c0.29-0.9,0.68-1.7,1.16-2.39c0.49-0.69,1.04-1.28,1.67-1.76c0.63-0.49,1.29-0.88,1.98-1.19
		s1.39-0.53,2.1-0.68c0.71-0.14,1.37-0.22,1.98-0.22h15.01V23.53z"/>
	<path class="st0" d="M264.02,35.37c0,0.92-0.16,1.91-0.49,2.98s-0.85,2.05-1.57,2.97c-0.73,0.91-1.67,1.67-2.84,2.29
		c-1.17,0.61-2.59,0.92-4.26,0.92h-11.99c-0.92,0-1.91-0.16-2.98-0.49c-1.07-0.32-2.05-0.85-2.97-1.57s-1.67-1.67-2.29-2.84
		c-0.61-1.17-0.92-2.59-0.92-4.26c0-0.92,0.16-1.92,0.49-2.99c0.32-1.07,0.85-2.07,1.57-2.98s1.67-1.67,2.84-2.29
		c1.17-0.61,2.59-0.92,4.26-0.92h11.99v6.34h-11.99c-0.9,0-1.6,0.28-2.1,0.83s-0.74,1.24-0.74,2.06c0,0.87,0.29,1.55,0.86,2.03
		c0.57,0.49,1.25,0.73,2.03,0.73h11.94c0.9,0,1.6-0.27,2.1-0.82s0.74-1.23,0.74-2.05v-9.28c0-0.87-0.27-1.56-0.81-2.07
		s-1.21-0.77-2.03-0.77h-14.6v-6.32h14.6c0.92,0,1.91,0.16,2.98,0.49c1.06,0.32,2.05,0.85,2.97,1.57s1.67,1.67,2.29,2.84
		c0.61,1.17,0.92,2.59,0.92,4.26V35.37z"/>
</g>
<g>
	<g>
		<path class="st0" d="M0,17.25c0.38,0.27,0.63,0.4,0.81,0.59c3.75,3.88,8.33,6.58,13.05,9.07c2.7,1.42,5.4,2.84,8.12,4.23
			c0.75,0.39,1.14,0.92,1.38,1.75c0.45,1.49,1.11,2.92,1.65,4.38c0.09,0.25,0.04,0.56,0.06,0.84c-0.29,0-0.62,0.09-0.85-0.02
			c-4.53-2.2-9.09-4.35-13.55-6.68c-2.91-1.52-5.65-3.35-7.67-6.03C1.23,23.05,0.31,20.39,0,17.25z"/>
		<path class="st0" d="M90.4,17.09c-0.51,5.56-3.22,9.46-7.61,12.36c-3.57,2.36-7.42,4.13-11.28,5.93
			c-1.67,0.78-3.31,1.64-4.98,2.42c-0.31,0.15-0.71,0.1-1.07,0.14c0.05-0.36,0.06-0.74,0.17-1.08c0.51-1.5,1-3.02,1.62-4.48
			c0.23-0.54,0.72-1.08,1.23-1.36c3.44-1.88,6.93-3.66,10.37-5.53c3.93-2.13,7.61-4.6,10.75-7.83
			C89.79,17.49,90.03,17.36,90.4,17.09z"/>
		<path class="st0" d="M0.7,9.35c4.24,4.38,8.78,8.09,14.12,10.81c2.27,1.15,4.48,2.41,6.7,3.66c0.25,0.14,0.5,0.48,0.55,0.76
			c0.31,1.86,0.75,3.67,1.71,5.32c0.08,0.13-0.01,0.35-0.02,0.53c-0.26-0.02-0.56,0.04-0.77-0.07c-1.42-0.72-2.83-1.48-4.24-2.21
			c-4.4-2.28-8.8-4.56-12.79-7.54c-2.49-1.85-4.32-4.16-4.87-7.28C0.84,12.01,0.82,10.67,0.7,9.35z"/>
		<path class="st0" d="M89.58,9.03c0.33,4.67-1.14,8.38-4.8,11.17c-4.1,3.12-8.64,5.48-13.19,7.84c-1.34,0.7-2.67,1.42-4.02,2.09
			c-0.25,0.13-0.61,0.06-0.91,0.08c0.07-0.25,0.13-0.5,0.21-0.75c0.49-1.56,1.06-3.11,1.46-4.7c0.15-0.61,0.36-0.97,0.91-1.27
			c3.05-1.64,6.15-3.22,9.11-5.01C82.54,15.95,86.27,12.84,89.58,9.03z"/>
		<path class="st0" d="M3.4,2.67c1.75,2.48,3.93,4.55,6.47,6.16c3.61,2.3,7.29,4.48,10.98,6.65c0.81,0.48,1.11,1,1.24,1.95
			c0.29,1.97,0.86,3.9,1.3,5.82c-0.26-0.11-0.7-0.3-1.14-0.5c-5.43-2.53-10.46-5.7-15.15-9.43c-2.66-2.11-4.4-4.77-4.28-8.32
			c0.03-0.76,0.21-1.52,0.32-2.29C3.24,2.69,3.32,2.68,3.4,2.67z"/>
		<path class="st0" d="M67.01,23.05c0.43-1.52,0.88-2.99,1.27-4.47c0.13-0.51,0.19-1.05,0.17-1.58c-0.03-0.87,0.45-1.28,1.15-1.66
			c4.15-2.28,8.28-4.59,12.07-7.45c2.05-1.54,3.88-3.29,5.46-5.53c0.52,1.37,0.57,2.63,0.41,3.9c-0.37,2.97-2.03,5.17-4.29,6.96
			c-4.76,3.77-9.86,6.98-15.38,9.53c-0.23,0.11-0.46,0.2-0.69,0.3C67.13,23.07,67.07,23.05,67.01,23.05z"/>
		<path class="st0" d="M41.22,43.17c-0.12-4.94-2.72-8.54-6.09-11.68c-1.49-1.39-3.23-2.49-4.84-3.76c-1.3-1.02-2.64-2-3.81-3.15
			c-1.94-1.91-3.02-4.27-3.16-7.03c-0.01-0.13,0.02-0.27,0.04-0.55c0.34,0.15,0.62,0.23,0.86,0.38c3.72,2.44,7.61,4.64,10.89,7.7
			c3.38,3.15,5.79,6.88,6.82,11.43C42.44,38.8,42.22,41,41.22,43.17z"/>
		<path class="st0" d="M67.28,16.72c-0.11,1.95-0.51,3.55-1.3,5.06c-1.01,1.93-2.53,3.4-4.24,4.7c-2.13,1.63-4.39,3.12-6.37,4.92
			c-1.49,1.36-2.75,3.02-3.88,4.7c-1.37,2.04-2.26,4.31-2.1,6.87c-1.01-2.11-1.26-4.3-0.75-6.56c1.16-5.15,3.96-9.32,8.05-12.53
			c3.01-2.36,6.28-4.39,9.44-6.55C66.41,17.12,66.74,16.99,67.28,16.72z"/>
		<path class="st0" d="M28.5,46.52c-0.45-0.08-0.73-0.07-0.95-0.17c-5.42-2.48-10.84-4.98-15.72-8.47c-3.22-2.31-6-5.04-8.23-8.32
			c-0.09-0.14-0.19-0.28-0.25-0.43c-0.12-0.3-0.22-0.62-0.43-1.18c0.72,0.47,1.23,0.81,1.75,1.15c4.87,3.22,10.02,5.93,15.36,8.27
			c1.56,0.68,3.05,1.53,4.55,2.35c0.32,0.17,0.63,0.48,0.8,0.8c0.97,1.79,1.91,3.6,2.85,5.41C28.3,46.04,28.35,46.17,28.5,46.52z"/>
		<path class="st0" d="M87.44,28.11c-0.23,0.46-0.41,0.95-0.69,1.37c-2.78,4.18-6.43,7.48-10.75,9.95
			c-4.24,2.42-8.67,4.53-13.02,6.76c-0.21,0.11-0.49,0.08-0.97,0.15c0.26-0.47,0.41-0.72,0.54-0.98c0.81-1.56,1.59-3.13,2.45-4.67
			c0.27-0.48,0.65-1.01,1.12-1.25c3.27-1.65,6.63-3.13,9.84-4.87c3.56-1.93,7-4.08,10.49-6.13c0.26-0.15,0.51-0.31,0.77-0.47
			C87.3,28.01,87.37,28.06,87.44,28.11z"/>
		<path class="st0" d="M38.52,47.39c-0.21-2.98-1.18-5.51-3.09-7.54c-1.77-1.89-3.79-3.55-5.7-5.31c-1.23-1.13-2.55-2.19-3.68-3.42
			c-1.55-1.69-2.29-3.8-2.67-6.16c0.33,0.11,0.61,0.15,0.83,0.28c4.15,2.55,8.31,5.11,11.59,8.8c1.76,1.98,3.43,4.05,3.94,6.73
			C40.19,43.06,39.97,45.28,38.52,47.39z"/>
		<path class="st0" d="M52.08,47.07c-1.93-2.9-1.93-5.92-0.37-8.94c1.65-3.18,4.09-5.74,6.94-7.87c2.42-1.81,4.98-3.41,7.49-5.09
			c0.24-0.16,0.55-0.21,1.11-0.42c-0.4,1.3-0.66,2.41-1.09,3.44c-1,2.39-2.81,4.12-4.77,5.75c-2.04,1.69-4.04,3.44-5.92,5.31
			c-1.8,1.79-2.81,4.08-3.3,6.57C52.09,46.23,52.11,46.66,52.08,47.07z"/>
		<path class="st0" d="M24.8,32.92c0.41,0.21,0.85,0.39,1.23,0.64c3.26,2.1,6.42,4.31,8.81,7.43c1.22,1.59,1.95,3.4,2.11,5.39
			c0.09,1.11-0.25,2.14-1.21,2.96c-0.11-0.18-0.22-0.28-0.24-0.4c-0.41-2.31-1.85-3.97-3.5-5.49c-1.98-1.82-4.09-3.53-5.39-5.95
			c-0.77-1.42-1.39-2.91-2.07-4.38C24.63,33.07,24.71,33,24.8,32.92z"/>
		<path class="st0" d="M65.89,32.68c-0.99,3.53-2.75,6.38-5.32,8.75c-1.17,1.08-2.36,2.16-3.44,3.32c-1.02,1.09-1.81,2.35-2.03,3.89
			c-0.02,0.15-0.14,0.29-0.21,0.44c-1.01-0.53-1.49-1.98-1.24-3.46c0.45-2.71,1.87-4.88,3.77-6.77c2.26-2.24,4.81-4.09,7.54-5.71
			C65.2,32.99,65.46,32.89,65.89,32.68z"/>
		<path class="st0" d="M63.52,41.19c-0.33,0.64-0.56,1.07-0.78,1.5c-1.31,2.51-3.06,4.68-5.12,6.6c-0.26,0.24-0.66,0.32-1,0.47
			c-0.07-0.36-0.28-0.77-0.18-1.08c0.21-0.74,0.46-1.52,0.89-2.14c1.43-2.05,3.42-3.52,5.39-5C62.87,41.41,63.09,41.37,63.52,41.19z
			"/>
		<path class="st0" d="M27.43,41.26c1.61,1.41,3.29,2.75,4.79,4.27c0.8,0.81,1.33,1.91,1.85,2.94c0.18,0.37-0.04,0.95-0.08,1.43
			c-0.42-0.21-0.91-0.35-1.25-0.65c-2.24-2.04-3.97-4.46-5.37-7.14c-0.1-0.19-0.15-0.4-0.22-0.6
			C27.24,41.43,27.33,41.35,27.43,41.26z"/>
	</g>
</g>
</svg>
